<svg xmlns="http://www.w3.org/2000/svg" width="256" height="256" viewBox="0 0 256 256" fill="none">
<path d="M222.241 194.892L227.593 189.541L254.873 162.263C255.23 161.915 255.513 161.498 255.707 161.039C255.9 160.579 256 160.086 256 159.587C256 159.089 255.9 158.595 255.707 158.136C255.513 157.676 255.23 157.26 254.873 156.912L228.682 130.676C227.973 129.965 227.575 129.003 227.575 128C227.575 126.997 227.973 126.035 228.682 125.324L254.873 99.0884C255.23 98.74 255.513 98.3238 255.707 97.8643C255.9 97.4048 256 96.9113 256 96.4127C256 95.9142 255.9 95.4206 255.707 94.9611C255.513 94.5016 255.23 94.0855 254.873 93.737L227.593 66.4122L222.241 61.0608L194.912 33.783L189.56 28.4316L162.28 1.10646C161.569 0.397953 160.607 0 159.604 0C158.601 0 157.639 0.397953 156.928 1.10646L130.69 27.3425C129.979 28.051 129.017 28.4487 128.013 28.4487C127.01 28.4487 126.048 28.051 125.338 27.3425L99.0988 1.10646C98.3884 0.397953 97.4264 0 96.4231 0C95.4198 0 94.4571 0.397953 93.7468 1.10646L66.4187 28.4316L61.0667 33.783L33.7866 61.0608L28.4347 66.4593L1.10658 93.737C0.397996 94.4473 0 95.4095 0 96.4127C0 97.4159 0.397996 98.3782 1.10658 99.0884L27.3449 125.324C28.0535 126.035 28.4514 126.997 28.4514 128C28.4514 129.003 28.0535 129.965 27.3449 130.676L1.10658 156.912C0.397996 157.622 0 158.584 0 159.587C0 160.59 0.397996 161.553 1.10658 162.263L28.4347 189.541L33.7866 194.939L61.0667 222.217L66.4187 227.568L93.7468 254.894C94.4571 255.602 95.4198 256 96.4231 256C97.4264 256 98.3884 255.602 99.0988 254.894L125.338 228.657C126.048 227.949 127.01 227.551 128.013 227.551C129.017 227.551 129.979 227.949 130.69 228.657L156.928 254.894C157.639 255.602 158.601 256 159.604 256C160.607 256 161.569 255.602 162.28 254.894L189.56 227.568L194.912 222.217L222.241 194.892ZM99.0988 194.892L93.7468 189.493L66.4187 162.216L61.0667 156.864L34.8285 130.628C34.1199 129.918 33.7219 128.956 33.7219 127.953C33.7219 126.95 34.1199 125.987 34.8285 125.277L61.0667 99.041L66.4187 93.6896L93.7468 66.4122L99.0988 61.0134L125.338 34.8247C125.686 34.4682 126.102 34.1848 126.562 33.9914C127.021 33.798 127.515 33.6983 128.013 33.6983C128.512 33.6983 129.006 33.798 129.465 33.9914C129.925 34.1848 130.341 34.4682 130.69 34.8247L156.928 61.0134L162.28 66.3647L189.56 93.6896L194.912 99.041L221.151 125.277C221.86 125.987 222.258 126.95 222.258 127.953C222.258 128.956 221.86 129.918 221.151 130.628L194.912 156.864L189.56 162.216L162.28 189.493L156.928 194.845L130.69 221.08C130.341 221.437 129.925 221.72 129.465 221.914C129.006 222.107 128.512 222.207 128.013 222.207C127.515 222.207 127.021 222.107 126.562 221.914C126.102 221.72 125.686 221.437 125.338 221.08L99.0988 194.892Z" fill="#CAFF4D"/>
</svg>