<svg xmlns="http://www.w3.org/2000/svg" width="134" height="23" viewBox="0 0 134 23" fill="none">
<path d="M15.061 6.27471H12.9083C12.7754 6.27471 12.6677 6.38759 12.6677 6.52684V22.4296C12.6677 22.5688 12.7754 22.6817 12.9083 22.6817H15.061C15.1938 22.6817 15.3015 22.5688 15.3015 22.4296V6.52684C15.3015 6.38759 15.1938 6.27471 15.061 6.27471Z" fill="#CAFF4D"/>
<path d="M26.6726 5.95955C25.7485 5.955 24.836 6.17486 24.0066 6.6019C23.1772 7.02894 22.4535 7.65155 21.8921 8.42091C21.8769 8.44208 21.8558 8.45771 21.8317 8.46559C21.8076 8.47348 21.7818 8.47323 21.7578 8.46486C21.7339 8.4565 21.7131 8.44045 21.6983 8.41899C21.6835 8.39752 21.6756 8.37173 21.6756 8.34528V6.52682C21.6756 6.45996 21.6503 6.39583 21.6052 6.34855C21.5601 6.30127 21.4989 6.2747 21.4351 6.2747H19.4327C19.401 6.27428 19.3695 6.28052 19.3402 6.29304C19.3108 6.30556 19.2841 6.32411 19.2617 6.34761C19.2393 6.3711 19.2216 6.39906 19.2096 6.42984C19.1977 6.46062 19.1918 6.4936 19.1922 6.52682V22.4264C19.1918 22.4596 19.1977 22.4926 19.2096 22.5234C19.2216 22.5542 19.2393 22.5821 19.2617 22.6056C19.2841 22.6291 19.3108 22.6477 19.3402 22.6602C19.3695 22.6727 19.401 22.679 19.4327 22.6785H21.5854C21.6492 22.6785 21.7104 22.652 21.7555 22.6047C21.8006 22.5574 21.8259 22.4933 21.8259 22.4264V12.2658C21.8259 9.56808 23.0286 8.40516 25.8638 8.40516C28.5276 8.40516 29.6972 9.50505 29.6972 12.1082V22.4264C29.6968 22.4596 29.7027 22.4926 29.7147 22.5234C29.7266 22.5542 29.7443 22.5821 29.7667 22.6056C29.7892 22.6291 29.8158 22.6477 29.8452 22.6602C29.8746 22.6727 29.906 22.679 29.9377 22.6785H32.0874C32.1191 22.679 32.1506 22.6727 32.18 22.6602C32.2093 22.6477 32.236 22.6291 32.2584 22.6056C32.2808 22.5821 32.2985 22.5542 32.3105 22.5234C32.3224 22.4926 32.3284 22.4596 32.328 22.4264V12.4202C32.328 8.62576 29.9347 5.95955 26.6726 5.95955Z" fill="#CAFF4D"/>
<path d="M40.079 2.72925C40.079 2.69615 40.0852 2.66336 40.0973 2.63277C40.1094 2.60218 40.1271 2.57439 40.1494 2.55098C40.1718 2.52757 40.1983 2.50898 40.2275 2.49631C40.2566 2.48364 40.2879 2.47713 40.3195 2.47713H44.0266C44.0904 2.47713 44.1516 2.45057 44.1967 2.40329C44.2418 2.35601 44.2672 2.29186 44.2672 2.22499V0.25214C44.2672 0.185272 44.2418 0.121128 44.1967 0.0738453C44.1516 0.0265628 44.0904 0 44.0266 0H41.8739C39.2101 0 37.4452 1.75542 37.4452 4.3586V6.02263C37.4452 6.05574 37.439 6.08853 37.4269 6.11912C37.4148 6.1497 37.3971 6.17749 37.3748 6.20091C37.3524 6.22432 37.3259 6.24288 37.2967 6.25555C37.2675 6.26822 37.2363 6.27475 37.2047 6.27475H34.2732C34.2095 6.27475 34.1483 6.30131 34.1032 6.3486C34.0581 6.39588 34.0327 6.46 34.0327 6.52687V8.34217C34.0327 8.40904 34.0581 8.47316 34.1032 8.52044C34.1483 8.56773 34.2095 8.59429 34.2732 8.59429H37.2047C37.2685 8.59429 37.3296 8.62085 37.3748 8.66813C37.4199 8.71542 37.4452 8.77954 37.4452 8.84641V22.4265C37.4452 22.4933 37.4705 22.5574 37.5156 22.6047C37.5608 22.652 37.6219 22.6786 37.6857 22.6786H39.8384C39.9022 22.6786 39.9634 22.652 40.0085 22.6047C40.0536 22.5574 40.079 22.4933 40.079 22.4265V8.84641C40.079 8.77954 40.1043 8.71542 40.1494 8.66813C40.1945 8.62085 40.2557 8.59429 40.3195 8.59429H44.3273C44.3911 8.59429 44.4523 8.56773 44.4974 8.52044C44.5425 8.47316 44.5678 8.40904 44.5678 8.34217V6.52687C44.5678 6.46 44.5425 6.39588 44.4974 6.3486C44.4523 6.30131 44.3911 6.27475 44.3273 6.27475H40.3195C40.2557 6.27475 40.1945 6.24819 40.1494 6.20091C40.1043 6.15362 40.079 6.0895 40.079 6.02263V2.72925Z" fill="#CAFF4D"/>
<path d="M64.9767 8.34215V6.52685C64.9767 6.45998 64.9513 6.39586 64.9062 6.34857C64.8611 6.30129 64.8 6.27473 64.7362 6.27473H62.7308C62.667 6.27473 62.6058 6.30129 62.5607 6.34857C62.5156 6.39586 62.4902 6.45998 62.4902 6.52685V22.4264C62.4902 22.4595 62.4965 22.4923 62.5085 22.5229C62.5206 22.5535 62.5383 22.5813 62.5607 22.6047C62.583 22.6281 62.6095 22.6467 62.6387 22.6594C62.6679 22.672 62.6992 22.6786 62.7308 22.6786H64.8835C64.9152 22.679 64.9466 22.6727 64.976 22.6602C65.0054 22.6477 65.032 22.6291 65.0545 22.6056C65.0769 22.5822 65.0946 22.5542 65.1065 22.5234C65.1185 22.4926 65.1244 22.4597 65.124 22.4264V12.9718C65.124 9.79501 66.5912 8.92202 69.1107 8.92202H70.3916C70.4554 8.92202 70.5165 8.89546 70.5616 8.84817C70.6067 8.80089 70.6321 8.73677 70.6321 8.6699V6.2306C70.6321 6.16344 70.6069 6.09899 70.5618 6.05121C70.5168 6.00343 70.4556 5.97616 70.3916 5.97533C67.8329 5.97533 66.3146 6.96176 65.1871 8.43669C65.1704 8.45682 65.1481 8.47088 65.1232 8.47683C65.0984 8.48278 65.0724 8.48032 65.049 8.46981C65.0256 8.4593 65.006 8.44128 64.993 8.41834C64.98 8.3954 64.9743 8.36871 64.9767 8.34215Z" fill="#CAFF4D"/>
<path d="M75.3283 0.157578H73.1756C73.0427 0.157578 72.9351 0.270457 72.9351 0.409702V22.4296C72.9351 22.5688 73.0427 22.6817 73.1756 22.6817H75.3283C75.4611 22.6817 75.5688 22.5688 75.5688 22.4296V0.409702C75.5688 0.270457 75.4611 0.157578 75.3283 0.157578Z" fill="#CAFF4D"/>
<path d="M103.127 13.2996L100.256 12.9844C98.6986 12.8268 98.0401 12.2627 98.0401 11.0935V10.4632C98.0401 9.01977 99.0293 8.39261 101.302 8.39261C103.632 8.39261 104.525 9.02292 104.67 10.9138C104.674 10.9777 104.701 11.0374 104.746 11.0812C104.791 11.125 104.849 11.1496 104.91 11.1502H107.189C107.224 11.1502 107.258 11.1423 107.289 11.1271C107.321 11.112 107.349 11.0899 107.371 11.0623C107.394 11.0348 107.411 11.0025 107.42 10.9676C107.43 10.9328 107.432 10.8961 107.427 10.8603C106.919 7.77176 104.321 5.94386 101.242 5.94386C98.1003 5.94386 95.3763 8.35794 95.3763 11.0557C95.3763 13.5769 96.9337 15.2283 99.7479 15.5435L102.679 15.8586C104.327 16.0477 105.012 16.5488 105.012 17.7117V18.4019C105.012 19.8453 103.906 20.5324 101.405 20.5324C98.8128 20.5324 97.8297 19.9241 97.6523 18.0111C97.647 17.9482 97.6194 17.8896 97.5748 17.847C97.5303 17.8044 97.4721 17.7808 97.4118 17.7811H95.1267C95.0923 17.7807 95.0581 17.7881 95.0267 17.8029C94.9952 17.8177 94.9672 17.8395 94.9446 17.8668C94.922 17.8941 94.9054 17.9262 94.8958 17.961C94.8862 17.9957 94.884 18.0322 94.8892 18.0679C95.3492 20.9862 97.959 22.9874 101.465 22.9874C104.97 22.9874 107.658 20.5387 107.658 17.7811C107.646 15.3134 105.963 13.6147 103.127 13.2996Z" fill="#CAFF4D"/>
<path d="M117.881 13.2996L115.006 12.9844C113.452 12.8268 112.793 12.2627 112.793 11.0935V10.4632C112.793 9.01977 113.78 8.39261 116.056 8.39261C118.386 8.39261 119.276 9.02292 119.423 10.9138C119.427 10.9779 119.454 11.0381 119.498 11.082C119.543 11.1259 119.602 11.1503 119.663 11.1502H121.939C121.974 11.1506 122.009 11.1431 122.041 11.1281C122.072 11.1132 122.101 11.0911 122.124 11.0636C122.147 11.036 122.163 11.0035 122.173 10.9684C122.183 10.9333 122.185 10.8964 122.18 10.8603C121.669 7.77176 119.071 5.94386 115.995 5.94386C112.854 5.94386 110.13 8.35794 110.13 11.0557C110.13 13.5769 111.687 15.2283 114.498 15.5435L117.433 15.8586C119.077 16.0477 119.766 16.5488 119.766 17.7117V18.4019C119.766 19.8453 118.659 20.5324 116.158 20.5324C113.566 20.5324 112.58 19.9241 112.403 18.0111C112.397 17.9487 112.37 17.8906 112.326 17.848C112.282 17.8055 112.225 17.7816 112.165 17.7811H109.871C109.836 17.7807 109.802 17.7882 109.771 17.803C109.739 17.8178 109.711 17.8395 109.688 17.8667C109.665 17.8939 109.648 17.926 109.638 17.9607C109.628 17.9954 109.626 18.032 109.63 18.0679C110.09 20.9862 112.7 22.9874 116.209 22.9874C119.718 22.9874 122.402 20.5387 122.402 17.7811C122.399 15.3134 120.725 13.6147 117.881 13.2996Z" fill="#CAFF4D"/>
<path d="M15.2295 0H12.74C12.6072 0 12.4995 0.11288 12.4995 0.252124V2.86161C12.4995 3.00085 12.6072 3.11373 12.74 3.11373H15.2295C15.3623 3.11373 15.47 3.00085 15.47 2.86161V0.252124C15.47 0.11288 15.3623 0 15.2295 0Z" fill="#CAFF4D"/>
<path d="M85.8635 5.95956C81.6122 5.95956 78.4102 9.84857 78.4102 14.806C78.4102 19.6058 81.5821 23 85.8635 23C88.6867 23 91.576 20.9074 92.7095 17.9796C92.7245 17.9413 92.7302 17.8997 92.726 17.8585C92.7218 17.8173 92.7079 17.7779 92.6855 17.7438C92.6631 17.7097 92.633 17.682 92.5978 17.6632C92.5626 17.6444 92.5235 17.635 92.484 17.6361H89.9885C89.9314 17.6362 89.8762 17.658 89.8332 17.6974C89.7901 17.7367 89.762 17.791 89.754 17.8504C89.4534 19.7413 88.2868 20.5512 85.8635 20.5512C82.6915 20.5512 81.3536 19.237 81.3536 16.0351V15.5655C81.3536 15.4986 81.379 15.4345 81.4241 15.3872C81.4692 15.3399 81.5304 15.3134 81.5941 15.3134H92.6644C92.7282 15.3134 92.7894 15.2868 92.8345 15.2395C92.8796 15.1922 92.9049 15.1281 92.9049 15.0612V14.1473C92.8959 9.53656 89.8142 5.95956 85.8635 5.95956ZM89.9615 12.7354C89.9615 12.8023 89.9361 12.8664 89.891 12.9137C89.8459 12.961 89.7848 12.9875 89.721 12.9875H81.5851C81.5535 12.9875 81.5223 12.981 81.4931 12.9683C81.4639 12.9556 81.4374 12.9371 81.415 12.9137C81.3927 12.8903 81.375 12.8625 81.3629 12.8319C81.3508 12.8013 81.3446 12.7685 81.3446 12.7354V12.6409C81.3446 9.69415 82.7787 8.40516 85.8936 8.40516C88.8551 8.40516 89.9615 9.63111 89.9615 12.5778V12.7354Z" fill="#CAFF4D"/>
<path d="M52.6164 5.95956C48.368 5.95956 45.166 9.84857 45.166 14.806C45.166 19.6058 48.338 23 52.6164 23C55.4395 23 58.3289 20.9074 59.4654 17.9796C59.4796 17.9413 59.4847 17.8999 59.4801 17.859C59.4756 17.8182 59.4616 17.7791 59.4394 17.7453C59.4171 17.7114 59.3873 17.6837 59.3526 17.6647C59.3178 17.6457 59.2791 17.6358 59.2399 17.6361H56.7444C56.6869 17.6361 56.6314 17.6578 56.5878 17.6971C56.5442 17.7364 56.5155 17.7908 56.5069 17.8504C56.2062 19.7413 55.0397 20.5512 52.6164 20.5512C49.4444 20.5512 48.1065 19.237 48.1065 16.0351V15.5655C48.1065 15.4986 48.1318 15.4345 48.1769 15.3872C48.222 15.3399 48.2832 15.3134 48.347 15.3134H59.4173C59.4811 15.3134 59.5422 15.2868 59.5873 15.2395C59.6325 15.1922 59.6578 15.1281 59.6578 15.0612V14.1473C59.6608 9.53656 56.567 5.95956 52.6164 5.95956ZM56.7173 12.7354C56.7173 12.8023 56.692 12.8664 56.6469 12.9137C56.6018 12.961 56.5406 12.9875 56.4768 12.9875H48.338C48.2742 12.9875 48.213 12.961 48.1679 12.9137C48.1228 12.8664 48.0974 12.8023 48.0974 12.7354V12.6409C48.0974 9.69415 49.5346 8.40516 52.6464 8.40516C55.6109 8.40516 56.7173 9.63111 56.7173 12.5778V12.7354Z" fill="#CAFF4D"/>
<path d="M6.29088 18.9313L5.95114 18.5721L4.21934 16.7568L3.87659 16.4007L2.21394 14.6547C2.16896 14.6074 2.1437 14.5434 2.1437 14.4766C2.1437 14.4099 2.16896 14.3458 2.21394 14.2986L3.87659 12.5526L4.21934 12.1965L5.95114 10.3812L6.29088 10.0219L8.02569 8.20662C8.07067 8.15935 8.09593 8.09531 8.09593 8.02855C8.09593 7.96179 8.07067 7.89775 8.02569 7.85049L6.29088 6.03204C6.24579 5.98489 6.1847 5.9584 6.12101 5.9584C6.05732 5.9584 5.99623 5.98489 5.95114 6.03204L4.21934 7.85049L3.87659 8.20662L2.14479 10.0219L1.80505 10.3812L0.0702445 12.1965C0.0252628 12.2437 0 12.3078 0 12.3745C0 12.4413 0.0252628 12.5053 0.0702445 12.5526L1.73589 14.2986C1.78088 14.3458 1.80614 14.4099 1.80614 14.4766C1.80614 14.5434 1.78088 14.6074 1.73589 14.6547L0.0702445 16.4007C0.0252628 16.4479 0 16.512 0 16.5787C0 16.6455 0.0252628 16.7095 0.0702445 16.7568L1.80505 18.5721L2.14479 18.9313L3.87659 20.7466L4.21934 21.1028L5.95114 22.9212C5.99623 22.9684 6.05732 22.9948 6.12101 22.9948C6.1847 22.9948 6.24579 22.9684 6.29088 22.9212L8.02569 21.1028C8.07067 21.0555 8.09593 20.9915 8.09593 20.9247C8.09593 20.8579 8.07067 20.7939 8.02569 20.7466L6.29088 18.9313Z" fill="#CAFF4D"/>
<path d="M127.712 10.0219L128.052 10.378L129.784 12.1965L130.123 12.5526L131.789 14.2986C131.834 14.3458 131.859 14.4099 131.859 14.4766C131.859 14.5434 131.834 14.6074 131.789 14.6547L130.123 16.4007L129.784 16.7568L128.052 18.5721L127.712 18.9282L125.977 20.7466C125.932 20.7939 125.907 20.8579 125.907 20.9247C125.907 20.9915 125.932 21.0555 125.977 21.1028L127.712 22.9212C127.757 22.9684 127.818 22.9948 127.882 22.9948C127.946 22.9948 128.007 22.9684 128.052 22.9212L129.784 21.1028L130.123 20.7466L131.858 18.9282L132.198 18.5721L133.93 16.7568C133.975 16.7095 134 16.6455 134 16.5787C134 16.512 133.975 16.4479 133.93 16.4007L132.267 14.6547C132.222 14.6074 132.197 14.5434 132.197 14.4766C132.197 14.4099 132.222 14.3458 132.267 14.2986L133.93 12.5526C133.975 12.5053 134 12.4413 134 12.3745C134 12.3078 133.975 12.2437 133.93 12.1965L132.198 10.378L131.858 10.0219L130.123 8.20662L129.784 7.85049L128.052 6.03204C128.007 5.98489 127.946 5.9584 127.882 5.9584C127.818 5.9584 127.757 5.98489 127.712 6.03204L125.977 7.85049C125.932 7.89775 125.907 7.96179 125.907 8.02855C125.907 8.09531 125.932 8.15935 125.977 8.20662L127.712 10.0219Z" fill="#CAFF4D"/>
</svg>